<svg width="800" height="400" viewBox="0 0 800 400" xmlns="http://www.w3.org/2000/svg"><defs><pattern id="satori_pattern_id_0" x="0" y="0" width="1" height="1" patternUnits="objectBoundingBox"><linearGradient id="satori_biid_0" x1="0" y1="0" x2="0" y2="1"><stop offset="0%" stop-color="#dbf4ff"/><stop offset="100%" stop-color="#fff1f1"/></linearGradient><rect x="0" y="0" width="800" height="400" fill="url(#satori_biid_0)"/></pattern></defs><mask id="satori_om-id"><rect x="0" y="0" width="800" height="400" fill="#fff"/></mask><rect x="0" y="0" width="800" height="400" fill="url(#satori_pattern_id_0)"/><clipPath id="satori_bct-id-0"><path d="M220.7 185.1L192.8 185.1L192.8 141.5L202.0 141.5L202.0 177.5L220.7 177.5L220.7 185.1ZM233.7 185.1L224.7 185.1L224.7 152.4L233.7 152.4L233.7 185.1ZM229.2 148.2L229.2 148.2Q227.2 148.2 225.8 146.8Q224.3 145.5 224.3 143.6L224.3 143.6Q224.3 141.7 225.8 140.3Q227.2 139.0 229.2 139.0L229.2 139.0Q231.3 139.0 232.7 140.3Q234.1 141.7 234.1 143.6L234.1 143.6Q234.1 145.5 232.7 146.8Q231.3 148.2 229.2 148.2ZM248.1 166.2L248.1 166.2L248.1 185.1L239.0 185.1L239.0 152.4L247.6 152.4L247.6 158.2L248.0 158.2Q249.1 155.3 251.7 153.6Q254.2 152.0 257.9 152.0L257.9 152.0Q261.3 152.0 263.8 153.5Q266.3 155.0 267.8 157.7Q269.2 160.5 269.2 164.3L269.2 164.3L269.2 185.1L260.1 185.1L260.1 165.9Q260.1 162.9 258.6 161.2Q257.0 159.5 254.3 159.5L254.3 159.5Q252.4 159.5 251.0 160.3Q249.6 161.1 248.9 162.6Q248.1 164.1 248.1 166.2ZM289.2 185.8L289.2 185.8Q284.2 185.8 280.5 183.7Q276.9 181.7 274.9 177.9Q273.0 174.1 273.0 168.9L273.0 168.9Q273.0 163.9 274.9 160.0Q276.9 156.2 280.5 154.1Q284.0 152.0 288.9 152.0L288.9 152.0Q292.1 152.0 294.9 153.0Q297.7 154.0 299.8 156.1Q301.9 158.2 303.1 161.3Q304.2 164.4 304.2 168.6L304.2 168.6L304.2 171.1L276.6 171.1L276.6 165.5L295.7 165.5Q295.7 163.5 294.8 162.0Q294.0 160.5 292.5 159.6Q291.0 158.7 289.0 158.7L289.0 158.7Q286.9 158.7 285.3 159.7Q283.8 160.6 282.9 162.2Q282.0 163.8 281.9 165.8L281.9 165.8L281.9 171.1Q281.9 173.5 282.9 175.3Q283.8 177.1 285.4 178.0Q287.1 179.0 289.4 179.0L289.4 179.0Q290.9 179.0 292.1 178.6Q293.4 178.1 294.3 177.3Q295.2 176.4 295.6 175.2L295.6 175.2L304.0 175.8Q303.4 178.8 301.4 181.0Q299.5 183.3 296.4 184.5Q293.3 185.8 289.2 185.8ZM317.5 185.7L317.5 185.7Q314.4 185.7 311.9 184.6Q309.5 183.5 308.0 181.4Q306.6 179.2 306.6 176.0L306.6 176.0Q306.6 173.3 307.6 171.4Q308.6 169.5 310.4 168.4Q312.1 167.3 314.3 166.7Q316.5 166.1 318.9 165.9L318.9 165.9Q321.8 165.6 323.5 165.3Q325.3 165.1 326.1 164.5Q326.8 164.0 326.8 163.0L326.8 163.0L326.8 162.8Q326.8 160.8 325.6 159.7Q324.3 158.6 322.0 158.6L322.0 158.6Q319.5 158.6 318.1 159.7Q316.6 160.8 316.2 162.4L316.2 162.4L307.8 161.7Q308.4 158.7 310.3 156.5Q312.2 154.3 315.1 153.2Q318.1 152.0 322.0 152.0L322.0 152.0Q324.8 152.0 327.3 152.6Q329.8 153.3 331.7 154.6Q333.7 155.9 334.8 158.0Q335.9 160.1 335.9 163.1L335.9 163.1L335.9 185.1L327.3 185.1L327.3 180.6L327.1 180.6Q326.3 182.1 324.9 183.3Q323.6 184.4 321.8 185.1Q319.9 185.7 317.5 185.7ZM320.1 179.5L320.1 179.5Q322.1 179.5 323.6 178.7Q325.2 177.9 326.0 176.5Q326.9 175.2 326.9 173.4L326.9 173.4L326.9 170.0Q326.5 170.2 325.7 170.5Q325.0 170.7 324.1 170.9Q323.2 171.0 322.3 171.2Q321.3 171.3 320.6 171.4L320.6 171.4Q319.0 171.7 317.8 172.2Q316.6 172.7 316.0 173.5Q315.3 174.4 315.3 175.7L315.3 175.7Q315.3 177.5 316.6 178.5Q318.0 179.5 320.1 179.5ZM350.1 185.1L341.0 185.1L341.0 152.4L349.8 152.4L349.8 158.1L350.1 158.1Q351.0 155.1 353.1 153.5Q355.2 151.9 358.0 151.9L358.0 151.9Q358.7 151.9 359.4 152.0Q360.2 152.1 360.8 152.2L360.8 152.2L360.8 160.3Q360.2 160.1 359.1 160.0Q357.9 159.8 357.0 159.8L357.0 159.8Q355.0 159.8 353.4 160.7Q351.9 161.5 351.0 163.1Q350.1 164.6 350.1 166.6L350.1 166.6L350.1 185.1Z M413.9 155.6L404.5 155.6Q404.1 154.0 403.3 152.8Q402.5 151.6 401.3 150.8Q400.1 149.9 398.6 149.5Q397.2 149.1 395.4 149.1L395.4 149.1Q392.0 149.1 389.5 150.7Q387.0 152.4 385.6 155.5Q384.2 158.7 384.2 163.3L384.2 163.3Q384.2 167.8 385.6 171.0Q386.9 174.2 389.5 175.9Q392.0 177.6 395.5 177.6L395.5 177.6Q398.6 177.6 400.8 176.4Q403.0 175.3 404.2 173.3Q405.4 171.2 405.4 168.4L405.4 168.4L407.3 168.7L396.0 168.7L396.0 161.8L414.3 161.8L414.3 167.3Q414.3 173.0 411.9 177.1Q409.4 181.3 405.2 183.5Q400.9 185.7 395.4 185.7L395.4 185.7Q389.3 185.7 384.6 183.0Q380.0 180.3 377.4 175.3Q374.8 170.3 374.8 163.3L374.8 163.3Q374.8 158.0 376.4 153.9Q377.9 149.7 380.7 146.8Q383.5 143.9 387.2 142.4Q390.9 140.9 395.2 140.9L395.2 140.9Q398.9 140.9 402.1 142.0Q405.3 143.0 407.8 145.0Q410.3 147.0 411.9 149.7Q413.4 152.4 413.9 155.6L413.9 155.6ZM428.1 185.1L419.1 185.1L419.1 152.4L427.9 152.4L427.9 158.1L428.2 158.1Q429.1 155.1 431.2 153.5Q433.3 151.9 436.1 151.9L436.1 151.9Q436.7 151.9 437.5 152.0Q438.3 152.1 438.9 152.2L438.9 152.2L438.9 160.3Q438.3 160.1 437.1 160.0Q436.0 159.8 435.1 159.8L435.1 159.8Q433.1 159.8 431.5 160.7Q429.9 161.5 429.0 163.1Q428.1 164.6 428.1 166.6L428.1 166.6L428.1 185.1ZM450.0 185.7L450.0 185.7Q446.9 185.7 444.4 184.6Q442.0 183.5 440.5 181.4Q439.1 179.2 439.1 176.0L439.1 176.0Q439.1 173.3 440.1 171.4Q441.1 169.5 442.9 168.4Q444.6 167.3 446.8 166.7Q449.0 166.1 451.4 165.9L451.4 165.9Q454.3 165.6 456.0 165.3Q457.8 165.1 458.6 164.5Q459.3 164.0 459.3 163.0L459.3 163.0L459.3 162.8Q459.3 160.8 458.1 159.7Q456.8 158.6 454.5 158.6L454.5 158.6Q452.0 158.6 450.6 159.7Q449.1 160.8 448.7 162.4L448.7 162.4L440.3 161.7Q440.9 158.7 442.8 156.5Q444.7 154.3 447.6 153.2Q450.6 152.0 454.5 152.0L454.5 152.0Q457.3 152.0 459.8 152.6Q462.3 153.3 464.2 154.6Q466.2 155.9 467.3 158.0Q468.4 160.1 468.4 163.1L468.4 163.1L468.4 185.1L459.8 185.1L459.8 180.6L459.6 180.6Q458.8 182.1 457.4 183.3Q456.1 184.4 454.3 185.1Q452.4 185.7 450.0 185.7ZM452.6 179.5L452.6 179.5Q454.6 179.5 456.1 178.7Q457.7 177.9 458.5 176.5Q459.4 175.2 459.4 173.4L459.4 173.4L459.4 170.0Q459.0 170.2 458.2 170.5Q457.5 170.7 456.6 170.9Q455.7 171.0 454.8 171.2Q453.8 171.3 453.1 171.4L453.1 171.4Q451.5 171.7 450.3 172.2Q449.1 172.7 448.5 173.5Q447.8 174.4 447.8 175.7L447.8 175.7Q447.8 177.5 449.1 178.5Q450.5 179.5 452.6 179.5ZM485.5 185.7L485.5 185.7Q481.8 185.7 478.8 183.7Q475.8 181.8 474.0 178.0Q472.3 174.3 472.3 168.8L472.3 168.8Q472.3 163.2 474.1 159.4Q475.9 155.7 478.9 153.8Q481.9 152.0 485.5 152.0L485.5 152.0Q488.3 152.0 490.1 152.9Q491.9 153.8 493.1 155.2Q494.2 156.6 494.8 157.9L494.8 157.9L495.1 157.9L495.1 141.5L504.2 141.5L504.2 185.1L495.2 185.1L495.2 179.9L494.8 179.9Q494.2 181.2 493.0 182.6Q491.9 183.9 490.0 184.8Q488.2 185.7 485.5 185.7ZM488.4 178.4L488.4 178.4Q490.6 178.4 492.1 177.2Q493.7 176.0 494.5 173.9Q495.3 171.7 495.3 168.8L495.3 168.8Q495.3 165.8 494.5 163.7Q493.7 161.5 492.1 160.4Q490.6 159.2 488.4 159.2L488.4 159.2Q486.2 159.2 484.6 160.4Q483.1 161.6 482.3 163.8Q481.5 165.9 481.5 168.8L481.5 168.8Q481.5 171.6 482.3 173.8Q483.1 176.0 484.6 177.2Q486.2 178.4 488.4 178.4ZM518.7 185.1L509.6 185.1L509.6 152.4L518.7 152.4L518.7 185.1ZM514.2 148.2L514.2 148.2Q512.1 148.2 510.7 146.8Q509.3 145.5 509.3 143.6L509.3 143.6Q509.3 141.7 510.7 140.3Q512.1 139.0 514.2 139.0L514.2 139.0Q516.2 139.0 517.6 140.3Q519.1 141.7 519.1 143.6L519.1 143.6Q519.1 145.5 517.6 146.8Q516.2 148.2 514.2 148.2ZM538.8 185.8L538.8 185.8Q533.8 185.8 530.1 183.7Q526.5 181.7 524.6 177.9Q522.6 174.1 522.6 168.9L522.6 168.9Q522.6 163.9 524.6 160.0Q526.5 156.2 530.1 154.1Q533.7 152.0 538.5 152.0L538.5 152.0Q541.7 152.0 544.5 153.0Q547.3 154.0 549.4 156.1Q551.5 158.2 552.7 161.3Q553.8 164.4 553.8 168.6L553.8 168.6L553.8 171.1L526.2 171.1L526.2 165.5L545.3 165.5Q545.3 163.5 544.5 162.0Q543.6 160.5 542.1 159.6Q540.6 158.7 538.6 158.7L538.6 158.7Q536.5 158.7 535.0 159.7Q533.4 160.6 532.5 162.2Q531.6 163.8 531.6 165.8L531.6 165.8L531.6 171.1Q531.6 173.5 532.5 175.3Q533.4 177.1 535.0 178.0Q536.7 179.0 539.0 179.0L539.0 179.0Q540.5 179.0 541.7 178.6Q543.0 178.1 543.9 177.3Q544.8 176.4 545.3 175.2L545.3 175.2L553.7 175.8Q553.0 178.8 551.0 181.0Q549.1 183.3 546.0 184.5Q542.9 185.8 538.8 185.8ZM566.8 166.2L566.8 166.2L566.8 185.1L557.8 185.1L557.8 152.4L566.4 152.4L566.4 158.2L566.8 158.2Q567.9 155.3 570.5 153.6Q573.0 152.0 576.7 152.0L576.7 152.0Q580.1 152.0 582.6 153.5Q585.1 155.0 586.5 157.7Q587.9 160.5 587.9 164.3L587.9 164.3L587.9 185.1L578.9 185.1L578.9 165.9Q578.9 162.9 577.3 161.2Q575.8 159.5 573.0 159.5L573.0 159.5Q571.2 159.5 569.8 160.3Q568.4 161.1 567.6 162.6Q566.9 164.1 566.8 166.2ZM590.8 152.4L610.5 152.4L610.5 159.2L590.8 159.2L590.8 152.4ZM595.3 176.3L595.3 144.6L604.3 144.6L604.3 175.1Q604.3 176.3 604.7 177.0Q605.1 177.7 605.8 178.0Q606.5 178.3 607.4 178.3L607.4 178.3Q608.0 178.3 608.7 178.1Q609.3 178.0 609.7 178.0L609.7 178.0L611.1 184.7Q610.4 184.9 609.2 185.2Q607.9 185.5 606.2 185.6L606.2 185.6Q602.9 185.7 600.4 184.7Q598.0 183.7 596.6 181.6Q595.2 179.5 595.3 176.3L595.3 176.3Z "/></clipPath><defs><pattern id="satori_pattern_id-0_0" x="0" y="0" width="1" height="1" patternUnits="objectBoundingBox"><linearGradient id="satori_biid-0_0" x1="0" y1="0" x2="1" y2="0"><stop offset="0%" stop-color="rgb(0, 124, 240)"/><stop offset="100%" stop-color="rgb(0, 223, 216)"/></linearGradient><rect x="0" y="0" width="423" height="73" fill="url(#satori_biid-0_0)"/></pattern></defs><mask id="satori_om-id-0"><rect x="189" y="127" width="423" height="73" fill="#fff"/></mask><rect x="189" y="127" width="423" height="73" fill="url(#satori_pattern_id-0_0)" clip-path="url(#satori_bct-id-0)"/><clipPath id="satori_bct-id-1"><path d="M227.8 214.5L237.0 214.5L237.0 258.1L227.8 258.1L227.8 214.5ZM251.5 239.2L251.5 239.2L251.5 258.1L242.5 258.1L242.5 225.4L251.1 225.4L251.1 231.2L251.5 231.2Q252.6 228.3 255.1 226.6Q257.7 225.0 261.3 225.0L261.3 225.0Q264.7 225.0 267.3 226.5Q269.8 228.0 271.2 230.7Q272.6 233.5 272.6 237.3L272.6 237.3L272.6 258.1L263.5 258.1L263.5 238.9Q263.6 235.9 262.0 234.2Q260.5 232.5 257.7 232.5L257.7 232.5Q255.9 232.5 254.5 233.3Q253.1 234.1 252.3 235.6Q251.6 237.1 251.5 239.2ZM275.5 225.4L295.2 225.4L295.2 232.2L275.5 232.2L275.5 225.4ZM279.9 249.3L279.9 217.6L289.0 217.6L289.0 248.1Q289.0 249.3 289.4 250.0Q289.8 250.7 290.5 251.0Q291.2 251.3 292.1 251.3L292.1 251.3Q292.7 251.3 293.4 251.1Q294.0 251.0 294.3 251.0L294.3 251.0L295.8 257.7Q295.1 257.9 293.8 258.2Q292.6 258.5 290.8 258.6L290.8 258.6Q287.6 258.7 285.1 257.7Q282.6 256.7 281.3 254.6Q279.9 252.5 279.9 249.3L279.9 249.3ZM313.6 258.8L313.6 258.8Q308.6 258.8 305.0 256.7Q301.3 254.7 299.4 250.9Q297.4 247.1 297.4 241.9L297.4 241.9Q297.4 236.9 299.4 233.0Q301.3 229.2 304.9 227.1Q308.5 225.0 313.3 225.0L313.3 225.0Q316.5 225.0 319.3 226.0Q322.1 227.0 324.2 229.1Q326.3 231.2 327.5 234.3Q328.7 237.4 328.7 241.6L328.7 241.6L328.7 244.1L301.0 244.1L301.0 238.5L320.1 238.5Q320.1 236.5 319.3 235.0Q318.4 233.5 316.9 232.6Q315.4 231.7 313.4 231.7L313.4 231.7Q311.4 231.7 309.8 232.7Q308.2 233.6 307.3 235.2Q306.4 236.8 306.4 238.8L306.4 238.8L306.4 244.1Q306.4 246.5 307.3 248.3Q308.2 250.1 309.9 251.0Q311.5 252.0 313.8 252.0L313.8 252.0Q315.3 252.0 316.6 251.6Q317.8 251.1 318.7 250.3Q319.6 249.4 320.1 248.2L320.1 248.2L328.5 248.8Q327.8 251.8 325.9 254.0Q323.9 256.3 320.8 257.5Q317.7 258.8 313.6 258.8ZM341.7 258.1L332.6 258.1L332.6 225.4L341.4 225.4L341.4 231.1L341.7 231.1Q342.6 228.1 344.7 226.5Q346.8 224.9 349.6 224.9L349.6 224.9Q350.3 224.9 351.1 225.0Q351.9 225.1 352.4 225.2L352.4 225.2L352.4 233.3Q351.8 233.1 350.7 233.0Q349.6 232.8 348.6 232.8L348.6 232.8Q346.6 232.8 345.0 233.7Q343.5 234.5 342.6 236.1Q341.7 237.6 341.7 239.6L341.7 239.6L341.7 258.1ZM364.2 270.4L355.1 270.4L355.1 225.4L364.1 225.4L364.1 230.9L364.5 230.9Q365.1 229.6 366.2 228.2Q367.3 226.8 369.2 225.9Q371.0 225.0 373.8 225.0L373.8 225.0Q377.4 225.0 380.4 226.8Q383.4 228.7 385.2 232.4Q387.0 236.2 387.0 241.8L387.0 241.8Q387.0 247.3 385.3 251.0Q383.5 254.8 380.5 256.7Q377.5 258.7 373.8 258.7L373.8 258.7Q371.1 258.7 369.3 257.8Q367.4 256.9 366.3 255.6Q365.1 254.2 364.5 252.9L364.5 252.9L364.2 252.9L364.2 270.4ZM364.0 241.8L364.0 241.8Q364.0 244.7 364.8 246.9Q365.6 249.0 367.2 250.2Q368.7 251.4 370.9 251.4L370.9 251.4Q373.1 251.4 374.6 250.2Q376.2 249.0 377.0 246.8Q377.8 244.6 377.8 241.8L377.8 241.8Q377.8 238.9 377.0 236.8Q376.2 234.6 374.7 233.4Q373.1 232.2 370.9 232.2L370.9 232.2Q368.7 232.2 367.1 233.4Q365.6 234.5 364.8 236.7Q364.0 238.8 364.0 241.8ZM405.8 258.8L405.8 258.8Q400.9 258.8 397.3 256.6Q393.7 254.5 391.7 250.7Q389.7 246.9 389.7 241.9L389.7 241.9Q389.7 236.8 391.7 233.0Q393.7 229.2 397.3 227.1Q400.9 225.0 405.8 225.0L405.8 225.0Q410.8 225.0 414.4 227.1Q418.0 229.2 420.0 233.0Q422.0 236.8 422.0 241.9L422.0 241.9Q422.0 246.9 420.0 250.7Q418.0 254.5 414.4 256.6Q410.8 258.8 405.8 258.8ZM405.9 251.7L405.9 251.7Q408.2 251.7 409.7 250.4Q411.2 249.2 412.0 246.9Q412.7 244.7 412.7 241.8L412.7 241.8Q412.7 239.0 412.0 236.7Q411.2 234.5 409.7 233.2Q408.2 231.9 405.9 231.9L405.9 231.9Q403.6 231.9 402.1 233.2Q400.5 234.5 399.7 236.7Q399.0 239.0 399.0 241.8L399.0 241.8Q399.0 244.7 399.7 246.9Q400.5 249.2 402.1 250.4Q403.6 251.7 405.9 251.7ZM425.9 214.5L435.0 214.5L435.0 258.1L425.9 258.1L425.9 214.5ZM449.5 258.7L449.5 258.7Q446.4 258.7 444.0 257.6Q441.5 256.5 440.1 254.4Q438.7 252.2 438.7 249.0L438.7 249.0Q438.7 246.3 439.7 244.4Q440.7 242.5 442.4 241.4Q444.1 240.3 446.3 239.7Q448.5 239.1 451.0 238.9L451.0 238.9Q453.8 238.6 455.6 238.3Q457.3 238.1 458.1 237.5Q458.9 237.0 458.9 236.0L458.9 236.0L458.9 235.8Q458.9 233.8 457.6 232.7Q456.4 231.6 454.0 231.6L454.0 231.6Q451.6 231.6 450.1 232.7Q448.7 233.8 448.2 235.4L448.2 235.4L439.8 234.7Q440.5 231.7 442.3 229.5Q444.2 227.3 447.2 226.2Q450.2 225.0 454.1 225.0L454.1 225.0Q456.8 225.0 459.3 225.6Q461.8 226.3 463.8 227.6Q465.7 228.9 466.8 231.0Q468.0 233.1 468.0 236.1L468.0 236.1L468.0 258.1L459.4 258.1L459.4 253.6L459.1 253.6Q458.3 255.1 457.0 256.3Q455.7 257.4 453.8 258.1Q452.0 258.7 449.5 258.7ZM452.1 252.5L452.1 252.5Q454.1 252.5 455.7 251.7Q457.2 250.9 458.1 249.5Q459.0 248.2 459.0 246.4L459.0 246.4L459.0 243.0Q458.5 243.2 457.8 243.5Q457.1 243.7 456.1 243.9Q455.2 244.0 454.3 244.2Q453.4 244.3 452.6 244.4L452.6 244.4Q451.0 244.7 449.9 245.2Q448.7 245.7 448.0 246.5Q447.3 247.4 447.3 248.7L447.3 248.7Q447.3 250.5 448.7 251.5Q450.0 252.5 452.1 252.5ZM470.7 225.4L490.4 225.4L490.4 232.2L470.7 232.2L470.7 225.4ZM475.2 249.3L475.2 217.6L484.3 217.6L484.3 248.1Q484.3 249.3 484.7 250.0Q485.0 250.7 485.7 251.0Q486.4 251.3 487.3 251.3L487.3 251.3Q488.0 251.3 488.6 251.1Q489.3 251.0 489.6 251.0L489.6 251.0L491.0 257.7Q490.3 257.9 489.1 258.2Q487.9 258.5 486.1 258.6L486.1 258.6Q482.8 258.7 480.4 257.7Q477.9 256.7 476.5 254.6Q475.2 252.5 475.2 249.3L475.2 249.3ZM503.4 258.1L494.3 258.1L494.3 225.4L503.4 225.4L503.4 258.1ZM498.9 221.2L498.9 221.2Q496.9 221.2 495.4 219.8Q494.0 218.5 494.0 216.6L494.0 216.6Q494.0 214.7 495.4 213.3Q496.9 212.0 498.9 212.0L498.9 212.0Q500.9 212.0 502.3 213.3Q503.8 214.7 503.8 216.6L503.8 216.6Q503.8 218.5 502.3 219.8Q500.9 221.2 498.9 221.2ZM523.4 258.8L523.4 258.8Q518.5 258.8 514.9 256.6Q511.2 254.5 509.3 250.7Q507.3 246.9 507.3 241.9L507.3 241.9Q507.3 236.8 509.3 233.0Q511.2 229.2 514.9 227.1Q518.5 225.0 523.4 225.0L523.4 225.0Q528.4 225.0 532.0 227.1Q535.6 229.2 537.6 233.0Q539.5 236.8 539.5 241.9L539.5 241.9Q539.5 246.9 537.6 250.7Q535.6 254.5 532.0 256.6Q528.4 258.8 523.4 258.8ZM523.5 251.7L523.5 251.7Q525.7 251.7 527.2 250.4Q528.8 249.2 529.5 246.9Q530.3 244.7 530.3 241.8L530.3 241.8Q530.3 239.0 529.5 236.7Q528.8 234.5 527.2 233.2Q525.7 231.9 523.5 231.9L523.5 231.9Q521.2 231.9 519.7 233.2Q518.1 234.5 517.3 236.7Q516.6 239.0 516.6 241.8L516.6 241.8Q516.6 244.7 517.3 246.9Q518.1 249.2 519.7 250.4Q521.2 251.7 523.5 251.7ZM552.5 239.2L552.5 239.2L552.5 258.1L543.5 258.1L543.5 225.4L552.1 225.4L552.1 231.2L552.5 231.2Q553.6 228.3 556.1 226.6Q558.7 225.0 562.3 225.0L562.3 225.0Q565.8 225.0 568.3 226.5Q570.8 228.0 572.2 230.7Q573.6 233.5 573.6 237.3L573.6 237.3L573.6 258.1L564.6 258.1L564.6 238.9Q564.6 235.9 563.0 234.2Q561.5 232.5 558.7 232.5L558.7 232.5Q556.9 232.5 555.5 233.3Q554.1 234.1 553.3 235.6Q552.6 237.1 552.5 239.2Z "/></clipPath><defs><pattern id="satori_pattern_id-1_0" x="0" y="0" width="1" height="1" patternUnits="objectBoundingBox"><linearGradient id="satori_biid-1_0" x1="0" y1="0" x2="1" y2="0"><stop offset="0%" stop-color="rgb(121, 40, 202)"/><stop offset="100%" stop-color="rgb(255, 0, 128)"/></linearGradient><rect x="0" y="0" width="352" height="73" fill="url(#satori_biid-1_0)"/></pattern></defs><mask id="satori_om-id-1"><rect x="224" y="200" width="352" height="73" fill="#fff"/></mask><rect x="224" y="200" width="352" height="73" fill="url(#satori_pattern_id-1_0)" clip-path="url(#satori_bct-id-1)"/></svg>